<svg xmlns="http://www.w3.org/2000/svg" viewBox="0 0 800 450" preserveAspectRatio="none">
  <defs>
    <radialGradient id="f" cx="50%" cy="50%" r="50%" fx="50%" fy="50%">
      <stop offset="50%" stop-color="white" stop-opacity="1"/>
      <stop offset="78%" stop-color="white" stop-opacity="0.5"/>
      <stop offset="100%" stop-color="white" stop-opacity="0"/>
    </radialGradient>
  </defs>
  <!-- Scribble-edged shape: inset from container edges, wide landscape, jagged chalk outline -->
  <path d="M95,52 C108,38 135,48 158,40 C178,33 202,46 228,38 C254,30 278,44 308,36
           C338,28 362,42 395,35 C428,28 455,44 488,36 C518,28 548,42 578,35
           C608,28 638,40 662,34 C686,28 705,42 718,52
           C732,66 726,92 728,118 C730,144 724,172 728,198
           C732,224 726,252 728,278 C730,304 726,332 728,358
           C730,372 720,390 706,400
           C690,414 665,402 638,410 C612,418 585,404 558,412
           C530,420 502,406 475,414 C448,422 418,408 390,416
           C362,424 332,410 305,418 C278,426 248,412 220,420
           C192,428 162,414 135,420 C108,426 90,414 80,400
           C66,384 72,358 70,332 C68,306 74,278 70,252
           C66,226 72,198 70,172 C68,146 74,118 70,92
           C66,72 78,58 95,52 Z"
        fill="url(#f)"/>
</svg>
